<svg width="51" height="51" fill="none" xmlns="http://www.w3.org/2000/svg"><path fill="#F9572E" d="M.962.924h50v50h-50z"/><path d="M41.375 33.644a1.97 1.97 0 00-.097-.186 14.773 14.773 0 00-2.832-3.276l-.03-.03-.014-.015-.015-.015h-.015c-.632-.603-1.033-1.008-1.201-1.215a1.142 1.142 0 01-.208-1.202c.375-.693.823-1.344 1.335-1.942a115 115 0 00.963-1.26c1.71-2.275 2.452-3.728 2.224-4.36l-.087-.148a.866.866 0 00-.46-.245 2.315 2.315 0 00-.949-.037l-4.271.03a.553.553 0 00-.296.008l-.194.044-.074.037-.058.045a.646.646 0 00-.164.155 1.022 1.022 0 00-.147.26 24.237 24.237 0 01-1.587 3.336 32.057 32.057 0 01-1.009 1.594c-.23.352-.487.684-.77.994a5.34 5.34 0 01-.564.51c-.169.13-.297.184-.386.164a15.73 15.73 0 01-.252-.06.974.974 0 01-.333-.363 1.614 1.614 0 01-.17-.578 6.707 6.707 0 01-.053-.6 13.18 13.18 0 01.008-.712c.01-.307.015-.515.015-.623 0-.376.007-.784.021-1.224l.038-1.045c.01-.256.014-.528.015-.816a3.411 3.411 0 00-.053-.674 2.278 2.278 0 00-.155-.475.796.796 0 00-.304-.355 1.708 1.708 0 00-.496-.201 9.945 9.945 0 00-2.002-.193 9.736 9.736 0 00-3.545.357 1.987 1.987 0 00-.563.444c-.178.218-.203.336-.075.356.49.034.944.264 1.261.637l.09.179c.097.217.167.447.206.682.073.356.118.718.134 1.082.05.617.05 1.237 0 1.854-.05.514-.096.914-.14 1.2a2.405 2.405 0 01-.2.698 2.833 2.833 0 01-.18.326.254.254 0 01-.073.074c-.128.05-.264.075-.401.075a.94.94 0 01-.504-.208 3.555 3.555 0 01-.615-.572 7.618 7.618 0 01-.72-1.015 17.726 17.726 0 01-.83-1.542l-.237-.43c-.148-.277-.351-.68-.608-1.21a23.386 23.386 0 01-.681-1.534.984.984 0 00-.357-.474l-.074-.045a1.066 1.066 0 00-.237-.126 1.58 1.58 0 00-.341-.096l-4.063.03c-.31-.04-.62.064-.845.281l-.06.089a.485.485 0 00-.044.237c.006.138.036.274.089.401a49.202 49.202 0 001.935 4.033c.697 1.296 1.302 2.339 1.816 3.129a37.296 37.296 0 001.572 2.239 33.68 33.68 0 001.06 1.35c.173.198.31.345.408.444l.37.356c.327.31.676.596 1.047.852.491.352 1.001.68 1.526.98a8.3 8.3 0 001.951.785 6.72 6.72 0 002.165.245h1.705a1.18 1.18 0 00.786-.326l.059-.074a.978.978 0 00.11-.275 1.48 1.48 0 00.053-.408 4.93 4.93 0 01.096-1.149c.049-.267.134-.526.252-.77.085-.16.192-.308.32-.437.074-.083.159-.155.252-.215a.993.993 0 01.118-.053c.3-.064.613.022.838.23.336.248.64.537.905.86.281.342.62.725 1.014 1.15.314.35.662.667 1.038.949l.297.177c.244.139.503.248.772.327.265.095.551.12.83.074l3.796-.06c.303.017.605-.047.875-.185a.734.734 0 00.37-.407c.04-.166.043-.338.008-.505a1.926 1.926 0 00-.104-.393z" fill="#fff"/></svg>