<svg width="51" height="51" fill="none" xmlns="http://www.w3.org/2000/svg"><path fill="#F9572E" d="M.962.924h50v50h-50z"/><path fill-rule="evenodd" clip-rule="evenodd" d="M18.85 15.379h16.725a2.819 2.819 0 012.887 2.888V34.99a2.819 2.819 0 01-2.887 2.888H18.85a2.819 2.819 0 01-2.888-2.888V18.267a2.819 2.819 0 012.888-2.888zm13.503 2.5a1.016 1.016 0 00-1.013 1.012v2.426a1.016 1.016 0 001.013 1.013h2.544a1.016 1.016 0 001.011-1.013v-2.425a1.015 1.015 0 00-1.011-1.014h-2.544zm3.567 7.015h-1.981c.191.625.289 1.276.289 1.93a6.997 6.997 0 01-13.988 0c0-.654.097-1.305.289-1.93h-2.066v9.505a.897.897 0 00.895.894h15.667a.897.897 0 00.895-.894v-9.505zM27.234 22.2a4.381 4.381 0 104.519 4.38 4.451 4.451 0 00-4.52-4.38z" fill="#fff"/></svg>